{"glyphs":{"\u0000":{"ha":0,"x_min":0,"x_max":0,"o":""},"\r":{"ha":347,"x_min":0,"x_max":0,"o":""}," ":{"ha":361,"x_min":0,"x_max":0,"o":""},"A":{"ha":825,"x_min":0,"x_max":0,"o":"m 181 646 b 440 907 181 789 294 907 l 631 907 l 631 486 l 181 486 z m 769 1042 l 440 1042 b 42 646 218 1042 42 863 l 42 0 l 181 0 l 181 357 l 631 357 l 631 0 l 769 0 z "},"a":{"ha":793,"x_min":0,"x_max":0,"o":"m 35 346 b 397 -14 35 147 196 -14 b 633 74 488 -14 569 19 l 633 0 l 758 0 l 758 346 b 397 708 758 547 597 708 b 35 346 196 708 35 547 z m 160 346 b 397 588 160 479 264 588 b 633 346 529 588 633 479 b 397 107 633 215 529 107 b 160 346 264 107 160 215 z "},"b":{"ha":793,"x_min":0,"x_max":0,"o":"m 758 349 b 396 708 758 547 597 708 b 160 621 306 708 224 675 l 160 1042 l 35 1042 l 35 349 b 396 -14 35 147 196 -14 b 758 349 597 -14 758 147 z m 633 349 b 396 107 633 215 529 107 b 160 349 264 107 160 215 b 396 588 160 479 264 588 b 633 349 529 588 633 479 z "},"c":{"ha":747,"x_min":0,"x_max":0,"o":"m 726 463 b 397 708 678 606 557 708 b 35 346 196 708 35 547 b 397 -14 35 147 196 -14 b 726 232 557 -14 678 89 l 590 232 b 397 107 551 158 488 107 b 160 346 264 107 160 215 b 397 588 160 479 264 588 b 590 463 488 588 551 536 z "},"d":{"ha":793,"x_min":0,"x_max":0,"o":"m 35 349 b 397 -14 35 147 196 -14 b 758 349 597 -14 758 147 l 758 1042 l 633 1042 l 633 621 b 397 708 569 675 488 708 b 35 349 196 708 35 547 z m 160 349 b 397 588 160 479 264 588 b 633 349 529 588 633 479 b 397 107 633 215 529 107 b 160 349 264 107 160 215 z "},"e":{"ha":747,"x_min":0,"x_max":0,"o":"m 708 517 b 397 708 657 625 535 708 b 35 346 196 708 35 547 b 397 -14 35 147 196 -14 b 726 232 557 -14 678 89 l 590 232 b 397 107 551 158 488 107 b 164 300 279 107 185 190 l 726 425 b 708 517 726 460 721 489 z m 168 410 b 397 588 194 513 286 588 b 568 499 472 588 529 553 z "},"f":{"ha":514,"x_min":0,"x_max":0,"o":"m 257 0 l 257 579 l 396 579 l 396 694 l 257 694 l 257 696 b 493 935 257 826 361 935 l 493 1056 b 132 696 293 1056 132 894 l 132 694 l 21 694 l 21 579 l 132 579 l 132 0 z "},"g":{"ha":803,"x_min":0,"x_max":0,"o":"m 624 753 b 696 681 624 713 656 681 b 768 753 736 681 768 713 b 696 825 768 793 736 825 b 624 753 656 825 624 793 z m 35 346 b 397 -14 35 147 196 -14 b 633 74 488 -14 569 19 l 633 -37 b 404 -296 633 -194 531 -296 b 175 -37 276 -296 175 -193 l 50 -37 b 404 -417 50 -262 207 -417 b 758 -37 601 -417 758 -262 l 758 106 l 667 106 b 758 346 724 169 758 254 b 397 708 758 547 597 708 b 35 346 196 708 35 547 z m 160 346 b 397 588 160 479 264 588 b 633 346 529 588 633 479 b 397 107 633 215 529 107 b 160 346 264 107 160 215 z "},"h":{"ha":657,"x_min":0,"x_max":0,"o":"m 622 288 b 282 694 622 513 471 694 l 167 694 l 167 1043 l 42 1043 l 42 0 l 167 0 l 167 574 l 282 574 b 497 288 400 574 497 444 l 497 0 l 622 0 z "},"i":{"ha":228,"x_min":0,"x_max":0,"o":"m 42 956 b 114 883 42 915 74 883 b 186 956 154 883 186 915 b 114 1028 186 996 154 1028 b 42 956 74 1028 42 996 z m 176 0 l 176 694 l 51 694 l 51 0 z "},"j":{"ha":433,"x_min":0,"x_max":0,"o":"m 247 956 b 319 883 247 915 279 883 b 392 956 360 883 392 915 b 319 1028 392 996 360 1028 b 247 956 279 1028 247 996 z m 382 694 l 257 694 l 257 -57 b 21 -296 257 -187 153 -296 l 21 -417 b 382 -57 221 -417 382 -256 z "},"k":{"ha":601,"x_min":0,"x_max":0,"o":"m 456 694 b 240 408 456 538 358 408 l 167 408 l 167 1043 l 42 1043 l 42 0 l 167 0 l 167 286 l 240 286 b 456 0 358 286 456 157 l 581 0 b 418 347 581 147 515 276 b 581 694 515 418 581 547 z "},"l":{"ha":417,"x_min":0,"x_max":0,"o":"m 160 1042 l 35 1042 l 35 346 b 396 -14 35 147 196 -14 l 396 107 b 160 346 264 107 160 215 z "},"m":{"ha":1033,"x_min":0,"x_max":0,"o":"m 601 335 b 510 574 601 426 567 510 l 638 574 b 874 335 769 574 874 465 l 874 0 l 999 0 l 999 335 b 638 694 999 533 838 694 l 474 694 l 474 610 b 240 694 411 663 329 694 l 42 694 l 42 0 l 167 0 l 167 574 l 240 574 b 476 335 372 574 476 465 l 476 0 l 601 0 z "},"n":{"ha":636,"x_min":0,"x_max":0,"o":"m 167 0 l 167 574 l 240 574 b 476 335 372 574 476 465 l 476 0 l 601 0 l 601 335 b 240 694 601 533 440 694 l 42 694 l 42 0 z "},"o":{"ha":793,"x_min":0,"x_max":0,"o":"m 35 346 b 397 -14 35 147 196 -14 b 758 346 597 -14 758 147 b 397 708 758 547 597 708 b 35 346 196 708 35 547 z m 160 346 b 397 588 160 479 264 588 b 633 346 529 588 633 479 b 397 107 633 215 529 107 b 160 346 264 107 160 215 z "},"p":{"ha":793,"x_min":0,"x_max":0,"o":"m 758 346 b 396 708 758 547 597 708 b 35 346 196 708 35 547 l 35 -403 l 160 -403 l 160 74 b 396 -14 224 19 306 -14 b 758 346 597 -14 758 147 z m 633 346 b 396 107 633 215 529 107 b 160 346 264 107 160 215 b 396 588 160 479 264 588 b 633 346 529 588 633 479 z "},"q":{"ha":793,"x_min":0,"x_max":0,"o":"m 35 346 b 397 -14 35 147 196 -14 b 633 74 488 -14 569 19 l 633 -403 l 758 -403 l 758 346 b 397 708 758 547 597 708 b 35 346 196 708 35 547 z m 160 346 b 397 588 160 479 264 588 b 633 346 529 588 633 479 b 397 107 633 215 529 107 b 160 346 264 107 160 215 z "},"r":{"ha":424,"x_min":0,"x_max":0,"o":"m 167 0 l 167 335 b 403 574 167 465 271 574 l 403 694 b 167 607 313 694 231 661 l 167 694 l 42 694 l 42 0 z "},"s":{"ha":636,"x_min":0,"x_max":0,"o":"m 563 488 b 297 708 563 619 453 708 b 51 507 174 708 51 613 b 313 311 51 383 154 311 b 476 208 426 311 476 267 b 313 107 476 150 426 107 b 160 208 206 107 160 150 l 35 208 b 313 -14 35 83 139 -14 b 601 208 492 -14 601 83 b 313 432 601 333 492 432 b 176 507 231 432 176 457 b 297 588 176 553 233 588 b 438 488 383 588 438 553 z "},"t":{"ha":514,"x_min":0,"x_max":0,"o":"m 132 1042 l 132 694 l 21 694 l 21 579 l 132 579 l 132 346 b 493 -14 132 147 293 -14 l 493 107 b 257 346 361 107 257 215 l 257 579 l 396 579 l 396 694 l 257 694 l 257 1042 z "},"u":{"ha":636,"x_min":0,"x_max":0,"o":"m 469 694 l 469 121 l 396 121 b 160 360 264 121 160 229 l 160 694 l 35 694 l 35 360 b 396 0 35 161 196 0 l 594 0 l 594 694 z "},"v":{"ha":636,"x_min":0,"x_max":0,"o":"m 42 0 l 240 0 b 601 360 440 0 601 161 l 601 694 l 476 694 l 476 360 b 240 121 476 229 372 121 l 167 121 l 167 694 l 42 694 z "},"w":{"ha":1033,"x_min":0,"x_max":0,"o":"m 601 694 l 476 694 l 476 360 b 240 121 476 229 372 121 l 167 121 l 167 694 l 42 694 l 42 0 l 240 0 b 474 85 329 0 411 32 l 474 0 l 638 0 b 999 360 838 0 999 161 l 999 694 l 874 694 l 874 360 b 638 121 874 229 769 121 l 510 121 b 601 360 567 185 601 268 z "},"x":{"ha":757,"x_min":0,"x_max":0,"o":"m 597 694 b 382 408 597 538 500 408 b 167 694 263 408 167 539 l 42 694 b 204 347 42 547 107 418 b 42 0 107 276 42 147 l 167 0 b 382 286 167 156 263 286 b 597 0 500 286 597 157 l 722 0 b 560 347 722 147 657 276 b 722 694 657 418 722 547 z "},"y":{"ha":778,"x_min":0,"x_max":0,"o":"m 743 694 l 618 694 l 618 379 b 389 121 618 222 515 121 b 160 379 261 121 160 224 l 160 694 l 35 694 l 35 379 b 389 0 35 154 192 0 b 618 85 476 0 557 31 l 618 -37 b 389 -296 618 -194 515 -296 b 160 -37 261 -296 160 -193 l 35 -37 b 389 -417 35 -262 192 -417 b 743 -37 586 -417 743 -262 l 743 106 l 640 106 b 743 379 704 172 743 267 z "},"z":{"ha":593,"x_min":0,"x_max":0,"o":"m 342 574 b 354 468 424 574 426 524 l 111 282 b 254 0 -39 167 46 0 l 540 0 l 540 121 l 254 121 b 228 226 172 121 156 171 l 471 413 b 342 694 622 528 544 694 l 50 694 l 50 574 z "},"B":{"ha":825,"x_min":0,"x_max":0,"o":"m 194 649 l 194 907 l 371 907 b 594 736 517 907 594 829 l 594 614 b 421 649 544 636 486 649 z m 644 324 b 421 135 644 219 567 135 l 194 135 l 194 514 l 421 514 b 644 324 567 514 644 428 z m 421 0 b 783 324 643 0 783 146 b 631 594 783 436 728 536 l 733 594 l 733 736 b 371 1042 733 903 593 1042 l 56 1042 l 56 0 z "},"C":{"ha":1021,"x_min":0,"x_max":0,"o":"m 840 301 b 542 115 776 192 675 115 b 181 521 342 115 181 301 b 542 926 181 740 342 926 b 840 740 675 926 776 850 l 993 740 b 542 1056 919 925 753 1056 b 42 521 265 1056 42 817 b 542 -14 42 225 265 -14 b 993 301 753 -14 919 117 z "},"D":{"ha":825,"x_min":0,"x_max":0,"o":"m 644 396 b 385 135 644 253 531 135 l 194 135 l 194 907 l 385 907 b 644 646 531 907 644 789 z m 385 0 b 783 396 607 0 783 179 l 783 646 b 385 1042 783 863 607 1042 l 56 1042 l 56 0 z "},"E":{"ha":658,"x_min":0,"x_max":0,"o":"m 181 457 l 440 457 l 440 586 l 181 586 l 181 646 b 440 907 181 789 294 907 l 631 907 l 631 1042 l 440 1042 b 42 646 218 1042 42 863 l 42 396 b 440 0 42 179 218 0 l 631 0 l 631 135 l 440 135 b 181 396 294 135 181 253 z "},"F":{"ha":658,"x_min":0,"x_max":0,"o":"m 181 457 l 440 457 l 440 586 l 181 586 l 181 646 b 440 907 181 789 294 907 l 631 907 l 631 1042 l 440 1042 b 42 646 218 1042 42 863 l 42 0 l 181 0 z "},"G":{"ha":1035,"x_min":0,"x_max":0,"o":"m 542 357 l 840 357 l 840 301 b 542 115 776 192 675 115 b 181 521 342 115 181 301 b 542 926 181 740 342 926 b 840 740 675 926 776 850 l 993 740 b 542 1056 919 925 753 1056 b 42 521 265 1056 42 817 b 542 -14 42 225 265 -14 b 840 90 657 -14 760 25 l 840 0 l 993 0 l 993 486 l 542 486 z "},"H":{"ha":839,"x_min":0,"x_max":0,"o":"m 783 1042 l 644 1042 l 644 586 l 194 586 l 194 1042 l 56 1042 l 56 0 l 194 0 l 194 457 l 644 457 l 644 0 l 783 0 z "},"I":{"ha":250,"x_min":0,"x_max":0,"o":"m 194 1042 l 56 1042 l 56 0 l 194 0 z "},"J":{"ha":658,"x_min":0,"x_max":0,"o":"m 617 1042 l 218 1042 l 218 913 l 478 913 l 478 396 b 218 135 478 253 364 135 l 28 135 l 28 0 l 218 0 b 617 396 440 0 617 179 z "},"K":{"ha":825,"x_min":0,"x_max":0,"o":"m 194 454 l 385 454 b 644 193 531 454 644 336 l 644 0 l 783 0 l 783 193 b 607 521 783 329 714 450 b 783 850 714 592 783 714 l 783 1043 l 644 1043 l 644 850 b 385 589 644 707 531 589 l 194 589 l 194 1042 l 56 1042 l 56 0 l 194 0 z "},"L":{"ha":658,"x_min":0,"x_max":0,"o":"m 181 1042 l 42 1042 l 42 396 b 440 0 42 179 218 0 l 631 0 l 631 135 l 440 135 b 181 396 294 135 181 253 z "},"M":{"ha":1331,"x_min":0,"x_max":0,"o":"m 194 0 l 194 907 l 385 907 b 644 646 531 907 644 789 l 644 0 l 783 0 l 783 646 b 685 907 783 746 746 838 l 890 907 b 1150 646 1036 907 1150 789 l 1150 0 l 1289 0 l 1289 646 b 890 1042 1289 863 1113 1042 l 651 1042 l 651 940 b 385 1042 581 1003 488 1042 l 56 1042 l 56 0 z "},"N":{"ha":825,"x_min":0,"x_max":0,"o":"m 194 0 l 194 907 l 385 907 b 644 646 531 907 644 789 l 644 0 l 783 0 l 783 646 b 385 1042 783 863 607 1042 l 56 1042 l 56 0 z "},"O":{"ha":1083,"x_min":0,"x_max":0,"o":"m 42 521 b 542 -14 42 225 265 -14 b 1042 521 818 -14 1042 225 b 542 1056 1042 817 818 1056 b 42 521 265 1056 42 817 z m 181 521 b 542 926 181 740 342 926 b 903 521 742 926 903 740 b 542 115 903 301 742 115 b 181 521 342 115 181 301 z "},"P":{"ha":825,"x_min":0,"x_max":0,"o":"m 421 907 b 644 718 567 907 644 822 b 421 528 644 614 567 528 l 194 528 l 194 907 z m 421 393 b 783 718 643 393 783 540 b 421 1042 783 896 643 1042 l 56 1042 l 56 0 l 194 0 l 194 393 z "},"Q":{"ha":1083,"x_min":0,"x_max":0,"o":"m 42 521 b 542 -14 42 225 265 -14 b 1042 521 818 -14 1042 225 b 542 1056 1042 817 818 1056 b 42 521 265 1056 42 817 z m 181 521 b 542 926 181 740 342 926 b 903 521 742 926 903 740 b 542 115 903 301 742 115 b 181 521 342 115 181 301 z m 853 -26 b 947 -121 853 -79 894 -121 b 1042 -26 1000 -121 1042 -79 b 947 68 1042 26 1000 68 b 853 -26 894 68 853 26 z "},"R":{"ha":825,"x_min":0,"x_max":0,"o":"m 421 907 b 644 718 567 907 644 822 b 421 528 644 614 567 528 l 194 528 l 194 907 z m 421 393 b 644 222 567 393 644 315 l 644 0 l 783 0 l 783 222 b 653 463 783 319 736 406 b 783 718 736 522 783 615 b 421 1042 783 896 643 1042 l 56 1042 l 56 0 l 194 0 l 194 393 z "},"S":{"ha":788,"x_min":0,"x_max":0,"o":"m 397 -14 b 746 288 611 -14 746 122 b 397 589 746 463 599 589 b 194 756 281 589 194 650 b 378 921 194 854 268 921 b 567 778 496 921 567 868 l 706 778 b 378 1056 706 942 558 1056 b 56 756 207 1056 56 926 b 397 454 56 582 215 454 b 607 288 522 454 607 388 b 397 121 607 196 535 121 b 181 264 267 121 181 178 l 42 264 b 397 -14 42 108 213 -14 z "},"T":{"ha":992,"x_min":0,"x_max":0,"o":"m 565 646 b 825 907 565 789 679 907 l 964 907 l 964 1042 l 825 1042 b 496 869 688 1042 567 974 b 167 1042 425 974 304 1042 l 28 1042 l 28 907 l 167 907 b 426 646 313 907 426 789 l 426 0 l 565 0 z "},"U":{"ha":825,"x_min":0,"x_max":0,"o":"m 631 1042 l 631 135 l 440 135 b 181 396 294 135 181 253 l 181 1042 l 42 1042 l 42 396 b 440 0 42 179 218 0 l 769 0 l 769 1042 z "},"V":{"ha":825,"x_min":0,"x_max":0,"o":"m 56 1042 l 56 0 l 385 0 b 783 396 607 0 783 179 l 783 1042 l 644 1042 l 644 396 b 385 135 644 253 531 135 l 194 135 l 194 1042 z "},"W":{"ha":1331,"x_min":0,"x_max":0,"o":"m 56 1042 l 56 0 l 385 0 b 651 101 488 0 581 39 l 651 0 l 890 0 b 1289 396 1113 0 1289 179 l 1289 1042 l 1150 1042 l 1150 396 b 890 135 1150 253 1036 135 l 685 135 b 783 396 746 204 783 296 l 783 1042 l 644 1042 l 644 396 b 385 135 644 253 531 135 l 194 135 l 194 1042 z "},"X":{"ha":881,"x_min":0,"x_max":0,"o":"m 839 193 b 663 521 839 329 769 450 b 839 850 769 592 839 714 l 839 1043 l 700 1043 l 700 850 b 440 589 700 707 586 589 b 181 850 294 589 181 707 l 181 1043 l 42 1043 l 42 850 b 218 522 42 714 111 593 b 42 193 111 451 42 329 l 42 0 l 181 0 l 181 193 b 440 454 181 336 294 454 b 700 193 586 454 700 336 l 700 0 l 839 0 z "},"Y":{"ha":853,"x_min":0,"x_max":0,"o":"m 825 1043 l 686 1043 l 686 850 b 426 589 686 707 572 589 b 167 850 281 589 167 707 l 167 1043 l 28 1043 l 28 850 b 357 460 28 657 168 493 l 357 0 l 496 0 l 496 460 b 825 850 685 493 825 657 z "},"Z":{"ha":733,"x_min":0,"x_max":0,"o":"m 42 1042 l 42 907 l 446 907 b 475 740 567 903 567 844 l 144 364 b 294 0 -24 172 33 0 l 699 0 l 699 135 l 294 135 b 265 301 174 139 174 197 l 596 678 b 446 1042 764 869 707 1042 z "}}}
